<?xml version="1.0" standalone="no"?>
<!DOCTYPE svg PUBLIC "-//W3C//DTD SVG 20010904//EN"
 "http://www.w3.org/TR/2001/REC-SVG-20010904/DTD/svg10.dtd">
<svg version="1.0" xmlns="http://www.w3.org/2000/svg"
 width="256.000000pt" height="256.000000pt" viewBox="0 0 256.000000 256.000000"
 preserveAspectRatio="xMidYMid meet">

<g transform="translate(0.000000,256.000000) scale(0.100000,-0.100000)"
fill="#000000" stroke="none">
<path d="M737 2286 c-62 -23 -114 -63 -141 -108 -13 -24 -71 -167 -127 -318
l-103 -275 -78 -81 c-49 -51 -88 -102 -105 -140 -28 -59 -28 -59 -31 -311 -3
-230 -1 -257 16 -295 28 -63 66 -103 124 -132 l52 -26 935 0 c888 0 938 1 977
19 61 28 109 75 133 132 21 48 22 62 19 307 l-3 257 -29 55 c-16 30 -63 91
-105 135 l-77 80 -104 280 c-58 154 -118 300 -135 324 -19 28 -51 56 -85 75
l-55 31 -520 2 c-420 2 -527 0 -558 -11z m1057 -195 c23 -26 209 -520 202
-537 -8 -21 -1424 -21 -1432 0 -7 17 179 511 202 537 16 18 36 19 514 19 478
0 498 -1 514 -19z m-1111 -955 c160 -68 117 -306 -56 -306 -58 0 -98 19 -131
63 -60 78 -34 190 54 235 51 25 87 28 133 8z m1327 -9 c48 -25 90 -89 90 -136
0 -41 -41 -113 -79 -138 -40 -27 -117 -31 -161 -8 -90 46 -112 174 -43 247 56
61 122 73 193 35z m-921 -63 c36 -160 213 -214 327 -100 33 33 44 53 53 99 10
44 17 57 31 57 25 0 30 -20 19 -70 -13 -57 -31 -89 -71 -126 -54 -52 -96 -68
-168 -68 -123 0 -222 83 -244 207 -8 43 -2 57 23 57 13 0 21 -14 30 -56z"/>
<path d="M952 1795 c-85 -106 -104 -143 -77 -152 16 -5 26 6 119 121 48 60 85
116 84 125 -8 38 -37 16 -126 -94z"/>
<path d="M1511 1796 c-88 -110 -108 -151 -71 -151 19 0 202 225 198 244 -8 39
-38 17 -127 -93z"/>
<path d="M585 1090 c-26 -10 -61 -49 -70 -78 -9 -32 12 -88 42 -112 44 -35
117 -24 155 24 22 26 23 94 2 124 -29 42 -85 61 -129 42z"/>
<path d="M1883 1081 c-40 -25 -53 -49 -53 -98 1 -61 46 -103 112 -103 43 0 76
24 94 66 39 94 -67 189 -153 135z"/>
<path d="M230 1777 c-102 -29 -150 -79 -150 -158 0 -36 6 -48 44 -85 24 -24
50 -44 58 -44 8 0 41 26 75 58 50 48 65 70 92 141 18 46 30 85 28 87 -12 12
-107 12 -147 1z"/>
<path d="M2198 1784 c-10 -3 -18 -8 -18 -10 0 -3 14 -42 32 -87 26 -69 41 -91
91 -139 34 -32 67 -58 74 -58 7 0 33 19 58 43 40 39 45 48 45 88 0 59 -26 98
-86 131 -49 27 -155 44 -196 32z"/>
<path d="M331 421 c4 -68 8 -83 29 -107 42 -45 77 -54 221 -54 198 0 239 28
239 168 l0 72 -246 0 -246 0 3 -79z"/>
<path d="M1740 428 c0 -86 19 -126 73 -151 52 -25 287 -24 337 1 56 28 80 73
80 153 l0 69 -245 0 -245 0 0 -72z"/>
</g>
</svg>
